<svg width="14" height="14" viewBox="0 0 14 14" fill="none" xmlns="http://www.w3.org/2000/svg">
<g clip-path="url(#clip0)">
<path d="M6.22705 7.00077L0.16066 0.934351C-0.0529214 0.720769 -0.0529214 0.374488 0.16066 0.160934C0.374242 -0.0526204 0.720523 -0.0526477 0.934077 0.160934L7.00049 6.22735L13.0669 0.160934C13.2805 -0.0526477 13.6267 -0.0526477 13.8403 0.160934C14.0539 0.374516 14.0539 0.720796 13.8403 0.934351L7.77391 7.00074L13.8403 13.0672C14.0539 13.2807 14.0539 13.627 13.8403 13.8406C13.7335 13.9474 13.5936 14.0007 13.4536 14.0007C13.3136 14.0007 13.1737 13.9474 13.0669 13.8406L7.00049 7.77419L0.934104 13.8406C0.827327 13.9474 0.687355 14.0007 0.547382 14.0007C0.40741 14.0007 0.267465 13.9474 0.16066 13.8406C-0.0529214 13.627 -0.0529214 13.2807 0.16066 13.0672L6.22705 7.00077Z" fill="#293462"/>
</g>
<defs>
<clipPath id="clip0">
<rect width="14" height="14" fill="white" transform="matrix(-1 0 0 1 14 0)"/>
</clipPath>
</defs>
</svg>
