<svg width="22" height="22" viewBox="0 0 22 22" fill="none" xmlns="http://www.w3.org/2000/svg">
<path d="M18.9062 3.4375C18.9974 3.4375 19.0849 3.40128 19.1493 3.33682C19.2138 3.27235 19.25 3.18492 19.25 3.09375V2.40625C19.2495 1.95057 19.0682 1.51369 18.746 1.19148C18.4238 0.869258 17.9869 0.688012 17.5312 0.6875H5.15625C4.70057 0.688012 4.26369 0.869258 3.94148 1.19148C3.61926 1.51369 3.43801 1.95057 3.4375 2.40625V17.875H4.125V2.40625C4.12532 2.13284 4.23407 1.87073 4.4274 1.6774C4.62073 1.48407 4.88284 1.37532 5.15625 1.375H16.1571C15.9331 1.6721 15.8121 2.03417 15.8125 2.40625V19.5938C15.8125 19.8673 15.7038 20.1296 15.5105 20.323C15.3171 20.5163 15.0548 20.625 14.7812 20.625C14.5077 20.625 14.2454 20.5163 14.052 20.323C13.8587 20.1296 13.75 19.8673 13.75 19.5938V18.9062C13.75 18.8151 13.7138 18.7276 13.6493 18.6632C13.5849 18.5987 13.4974 18.5625 13.4062 18.5625H1.03125C0.940082 18.5625 0.852648 18.5987 0.788182 18.6632C0.723716 18.7276 0.6875 18.8151 0.6875 18.9062V19.5938C0.688012 20.0494 0.869258 20.4863 1.19148 20.8085C1.51369 21.1307 1.95057 21.312 2.40625 21.3125H14.7812C15.2369 21.312 15.6738 21.1307 15.996 20.8085C16.3182 20.4863 16.4995 20.0494 16.5 19.5938V3.4375H18.9062ZM2.40625 20.625C2.13284 20.6247 1.87072 20.5159 1.67739 20.3226C1.48405 20.1293 1.37531 19.8672 1.375 19.5938V19.25H13.0625V19.5938C13.0621 19.9658 13.1831 20.3279 13.4071 20.625H2.40625ZM17.5312 1.375C17.8047 1.37532 18.0668 1.48407 18.2601 1.6774C18.4534 1.87073 18.5622 2.13284 18.5625 2.40625V2.75H16.5V2.40625C16.5003 2.13284 16.6091 1.87073 16.8024 1.6774C16.9957 1.48407 17.2578 1.37532 17.5312 1.375Z" fill="#293462" fill-opacity="0.7"/>
<path d="M7.9062 4.46875C7.9044 4.60609 7.93487 4.74193 7.99516 4.86535C8.05544 4.98876 8.14387 5.09629 8.2533 5.17928C8.23645 5.31528 8.25083 5.45332 8.29537 5.58292C8.33991 5.71251 8.41343 5.83024 8.51032 5.92713C8.60722 6.02403 8.72495 6.09755 8.85454 6.14209C8.98413 6.18662 9.12218 6.20101 9.25817 6.18415C9.3424 6.29224 9.45018 6.37969 9.57331 6.43984C9.69644 6.49999 9.83167 6.53125 9.9687 6.53125C10.1057 6.53125 10.241 6.49999 10.3641 6.43984C10.4872 6.37969 10.595 6.29224 10.6792 6.18415C10.8152 6.20102 10.9533 6.18664 11.0829 6.1421C11.2125 6.09757 11.3302 6.02405 11.4271 5.92715C11.524 5.83025 11.5975 5.71252 11.642 5.58293C11.6866 5.45333 11.701 5.31528 11.6841 5.17928C11.7922 5.09505 11.8796 4.98727 11.9398 4.86414C11.9999 4.74101 12.0312 4.60579 12.0312 4.46875C12.0312 4.33172 11.9999 4.19649 11.9398 4.07336C11.8796 3.95023 11.7922 3.84245 11.6841 3.75822C11.701 3.62223 11.6866 3.48418 11.642 3.35458C11.5975 3.22498 11.524 3.10725 11.4271 3.01035C11.3302 2.91345 11.2125 2.83994 11.0829 2.7954C10.9533 2.75087 10.8152 2.73648 10.6792 2.75335C10.595 2.64526 10.4872 2.55781 10.3641 2.49766C10.241 2.43751 10.1057 2.40625 9.9687 2.40625C9.83167 2.40625 9.69644 2.43751 9.57331 2.49766C9.45018 2.55781 9.3424 2.64526 9.25817 2.75335C9.12218 2.73648 8.98413 2.75087 8.85453 2.7954C8.72493 2.83994 8.6072 2.91345 8.5103 3.01035C8.41341 3.10725 8.33989 3.22498 8.29535 3.35458C8.25082 3.48418 8.23644 3.62223 8.2533 3.75822C8.14387 3.84122 8.05544 3.94875 7.99516 4.07216C7.93487 4.19557 7.9044 4.33141 7.9062 4.46875ZM8.75316 4.2692C8.80683 4.25707 8.85681 4.23223 8.89888 4.19677C8.94096 4.16131 8.97391 4.11627 8.99496 4.06543C9.01601 4.01459 9.02455 3.95943 9.01986 3.90461C9.01517 3.84978 8.99739 3.79688 8.968 3.75036C8.94322 3.7111 8.93253 3.66459 8.93768 3.61845C8.94283 3.57232 8.96352 3.52931 8.99635 3.49649C9.02917 3.46366 9.07219 3.44298 9.11832 3.43784C9.16446 3.43269 9.21097 3.44339 9.25022 3.46818C9.29675 3.49756 9.34964 3.51535 9.40447 3.52004C9.4593 3.52473 9.51445 3.51619 9.56529 3.49514C9.61613 3.47409 9.66117 3.44114 9.69663 3.39906C9.73209 3.35698 9.75693 3.30701 9.76907 3.25334C9.7793 3.20805 9.80462 3.1676 9.84088 3.13861C9.87715 3.10962 9.92219 3.09384 9.96861 3.09384C10.015 3.09384 10.0601 3.10962 10.0963 3.13861C10.1326 3.1676 10.1579 3.20805 10.1682 3.25334C10.1803 3.30701 10.2051 3.35698 10.2406 3.39906C10.2761 3.44114 10.3211 3.47409 10.3719 3.49514C10.4228 3.51619 10.4779 3.52473 10.5328 3.52004C10.5876 3.51535 10.6405 3.49756 10.687 3.46818C10.7263 3.44339 10.7728 3.43269 10.8189 3.43784C10.865 3.44298 10.9081 3.46366 10.9409 3.49649C10.9737 3.52931 10.9944 3.57232 10.9995 3.61845C11.0047 3.66459 10.994 3.7111 10.9692 3.75036C10.9398 3.79688 10.9221 3.84978 10.9174 3.90461C10.9127 3.95943 10.9212 4.01459 10.9423 4.06543C10.9633 4.11627 10.9963 4.16131 11.0383 4.19677C11.0804 4.23223 11.1304 4.25707 11.1841 4.2692C11.2294 4.27943 11.2698 4.30476 11.2988 4.34102C11.3278 4.37729 11.3436 4.42233 11.3436 4.46875C11.3436 4.51518 11.3278 4.56022 11.2988 4.59648C11.2698 4.63274 11.2294 4.65807 11.1841 4.6683C11.1304 4.68043 11.0804 4.70527 11.0383 4.74073C10.9963 4.77619 10.9633 4.82124 10.9423 4.87208C10.9212 4.92292 10.9127 4.97807 10.9174 5.0329C10.9221 5.08772 10.9398 5.14062 10.9692 5.18715C10.994 5.22641 11.0047 5.27293 10.9996 5.31908C10.9944 5.36522 10.9737 5.40825 10.9409 5.44107C10.9081 5.4739 10.865 5.49458 10.8189 5.49972C10.7727 5.50485 10.7262 5.49413 10.687 5.46932C10.6404 5.43995 10.5875 5.42217 10.5327 5.41749C10.4779 5.4128 10.4228 5.42134 10.3719 5.44239C10.3211 5.46344 10.2761 5.49639 10.2406 5.53846C10.2051 5.58053 10.1803 5.6305 10.1682 5.68417C10.1579 5.72945 10.1326 5.76991 10.0963 5.79889C10.0601 5.82788 10.015 5.84367 9.96861 5.84367C9.92219 5.84367 9.87715 5.82788 9.84088 5.79889C9.80462 5.76991 9.7793 5.72945 9.76907 5.68417C9.75693 5.6305 9.73209 5.58053 9.69663 5.53846C9.66118 5.49639 9.61614 5.46344 9.5653 5.44239C9.51447 5.42134 9.45932 5.4128 9.4045 5.41749C9.34968 5.42217 9.29679 5.43995 9.25026 5.46932C9.21101 5.49413 9.16449 5.50485 9.11834 5.49972C9.0722 5.49458 9.02917 5.4739 8.99633 5.44107C8.96349 5.40825 8.9428 5.36522 8.93765 5.31908C8.9325 5.27293 8.94321 5.22641 8.968 5.18715C8.99739 5.14062 9.01517 5.08772 9.01986 5.0329C9.02455 4.97807 9.01601 4.92292 8.99496 4.87208C8.97391 4.82124 8.94096 4.77619 8.89888 4.74073C8.85681 4.70527 8.80683 4.68043 8.75316 4.6683C8.70788 4.65807 8.66742 4.63274 8.63843 4.59648C8.60945 4.56022 8.59366 4.51518 8.59366 4.46875C8.59366 4.42233 8.60945 4.37729 8.63843 4.34102C8.66742 4.30476 8.70788 4.27943 8.75316 4.2692Z" fill="#293462" fill-opacity="0.7"/>
<path d="M8.25 8.59375H11.6875V9.28125H8.25V8.59375Z" fill="#293462" fill-opacity="0.7"/>
<path d="M9.28125 7.21875H12.7188V7.90625H9.28125V7.21875Z" fill="#293462" fill-opacity="0.7"/>
<path d="M7.21875 7.21875H8.59375V7.90625H7.21875V7.21875Z" fill="#293462" fill-opacity="0.7"/>
<path d="M6.53125 10.3125H14.7812V11H6.53125V10.3125Z" fill="#293462" fill-opacity="0.7"/>
<path d="M5.15625 10.3125H5.84375V11H5.15625V10.3125Z" fill="#293462" fill-opacity="0.7"/>
<path d="M6.53125 11.6875H12.0312V12.375H6.53125V11.6875Z" fill="#293462" fill-opacity="0.7"/>
<path d="M12.7188 11.6875H14.7812V12.375H12.7188V11.6875Z" fill="#293462" fill-opacity="0.7"/>
<path d="M6.53125 13.0625H14.7812V13.75H6.53125V13.0625Z" fill="#293462" fill-opacity="0.7"/>
<path d="M5.15625 13.0625H5.84375V13.75H5.15625V13.0625Z" fill="#293462" fill-opacity="0.7"/>
<path d="M6.53125 14.4375H8.59375V15.125H6.53125V14.4375Z" fill="#293462" fill-opacity="0.7"/>
<path d="M9.28125 14.4375H14.7812V15.125H9.28125V14.4375Z" fill="#293462" fill-opacity="0.7"/>
<path d="M6.53125 15.8125H12.0312V16.5H6.53125V15.8125Z" fill="#293462" fill-opacity="0.7"/>
<path d="M5.15625 15.8125H5.84375V16.5H5.15625V15.8125Z" fill="#293462" fill-opacity="0.7"/>
<path d="M6.53125 17.1875H14.7812V17.875H6.53125V17.1875Z" fill="#293462" fill-opacity="0.7"/>
<path d="M12.7188 15.8125H14.7812V16.5H12.7188V15.8125Z" fill="#293462" fill-opacity="0.7"/>
<path d="M20.2812 6.1875H19.9375C19.9375 5.82283 19.7926 5.47309 19.5348 5.21523C19.2769 4.95737 18.9272 4.8125 18.5625 4.8125C18.1978 4.8125 17.8481 4.95737 17.5902 5.21523C17.3324 5.47309 17.1875 5.82283 17.1875 6.1875V17.1875C17.1875 17.2409 17.2 17.2935 17.2241 17.3411H17.2238L18.2551 19.4036C18.2836 19.4607 18.3275 19.5087 18.3818 19.5423C18.4361 19.5758 18.4987 19.5936 18.5625 19.5936C18.6263 19.5936 18.6889 19.5758 18.7432 19.5423C18.7975 19.5087 18.8414 19.4607 18.8699 19.4036L19.9012 17.3411H19.9009C19.925 17.2935 19.9375 17.2409 19.9375 17.1875V6.875H20.2812C20.3724 6.8751 20.4598 6.91135 20.5242 6.9758C20.5886 7.04024 20.6249 7.12761 20.625 7.21875V11H21.3125V7.21875C21.3122 6.94534 21.2034 6.68323 21.0101 6.4899C20.8168 6.29657 20.5547 6.18782 20.2812 6.1875ZM18.5625 5.5C18.7448 5.50022 18.9195 5.57272 19.0484 5.7016C19.1773 5.83049 19.2498 6.00523 19.25 6.1875H17.875C17.8752 6.00523 17.9477 5.83049 18.0766 5.7016C18.2055 5.57272 18.3802 5.50022 18.5625 5.5ZM19.25 16.8438H17.875V11.6875H19.25V16.8438ZM19.25 11H17.875V10.3125H19.25V11ZM18.5625 18.4813L18.0874 17.5312H19.0376L18.5625 18.4813ZM19.25 9.625H17.875V6.875H19.25V9.625Z" fill="#293462" fill-opacity="0.7"/>
</svg>
