<svg width="469" height="469" viewBox="0 0 469 469" fill="none" xmlns="http://www.w3.org/2000/svg">
<path d="M234.832 0C357.155 0 457.478 93.6717 468.268 213.181H277.47V149.226C277.47 140.615 272.266 132.835 264.315 129.529C256.344 126.227 247.175 128.057 241.081 134.155L155.806 219.43C147.472 227.764 147.472 241.235 155.806 249.573L241.081 334.844C247.175 340.941 256.344 342.776 264.315 339.47C272.266 336.167 277.47 328.384 277.47 319.773V255.818H468.268C457.478 375.327 357.155 468.999 234.832 468.999C105.326 468.999 0.334473 364.007 0.334473 234.501C0.334473 104.992 105.326 0 234.832 0V0Z" fill="#293462"/>
</svg>
