<svg width="512" height="512" viewBox="0 0 512 512" fill="none" xmlns="http://www.w3.org/2000/svg">
<path d="M458.732 422.212L435.87 134.103C434.451 115.54 418.746 101.005 400.133 101.005H354.969V167.922C354.969 176.209 348.261 182.917 339.974 182.917C331.697 182.917 324.979 176.209 324.979 167.922V101.005H187.028V167.922C187.028 176.209 180.31 182.917 172.033 182.917C163.746 182.917 157.038 176.209 157.038 167.922V101.005H111.874C93.2611 101.005 77.5561 115.54 76.1371 134.063L53.2651 422.252C51.4961 445.334 59.5031 468.306 75.2271 485.28C90.9521 502.253 113.244 512 136.386 512H375.622C398.764 512 421.056 502.253 436.781 485.279C452.505 468.305 460.512 445.333 458.732 422.212ZM323.56 275.493L246.007 353.046C243.078 355.975 239.239 357.444 235.401 357.444C231.562 357.444 227.724 355.975 224.795 353.046L188.448 316.699C182.59 310.841 182.59 301.354 188.448 295.496C194.306 289.638 203.803 289.638 209.651 295.496L235.402 321.237L302.358 254.281C308.206 248.433 317.703 248.433 323.561 254.281C329.418 260.139 329.418 269.635 323.56 275.493Z" fill="#293462"/>
<path d="M256.004 0C201.433 0 157.039 44.404 157.039 98.975V101.004H187.029V98.975C187.029 60.938 217.968 29.989 256.005 29.989C294.042 29.989 324.981 60.938 324.981 98.975V101.004H354.97V98.975C354.969 44.404 310.575 0 256.004 0Z" fill="#293462"/>
</svg>
