<svg width="22" height="22" viewBox="0 0 22 22" fill="none" xmlns="http://www.w3.org/2000/svg">
<g clip-path="url(#clip0)">
<path d="M19.1901 4.48568L14.8932 0.188805C14.7724 0.0679336 14.6084 0 14.4375 0H4.98438C3.68126 0 2.62109 1.06017 2.62109 2.36328V19.6367C2.62109 20.9398 3.68126 22 4.98438 22H17.0156C18.3187 22 19.3789 20.9398 19.3789 19.6367V4.94141C19.3789 4.77048 19.311 4.60655 19.1901 4.48568ZM15.082 2.20056L17.1783 4.29688H15.082V2.20056ZM17.0156 20.7109H4.98438C4.39205 20.7109 3.91016 20.229 3.91016 19.6367V2.36328C3.91016 1.77096 4.39205 1.28906 4.98438 1.28906H13.793V4.94141C13.793 5.29736 14.0815 5.58594 14.4375 5.58594H18.0898V19.6367C18.0898 20.229 17.6079 20.7109 17.0156 20.7109Z" fill="#293462" fill-opacity="0.7"/>
<path d="M15.2969 8.67969C14.4824 8.67969 13.7502 8.22714 13.386 7.49873L13.2953 7.31728C13.1861 7.09887 12.9629 6.96094 12.7188 6.96094H9.28125C9.0371 6.96094 8.81392 7.09887 8.70474 7.31723L8.61403 7.49865C8.24983 8.22714 7.5176 8.67969 6.70312 8.67969C6.34717 8.67969 6.05859 8.96827 6.05859 9.32422V13.0022C6.05859 14.4483 6.51488 15.8259 7.37808 16.9861C8.24128 18.1463 9.42971 18.9792 10.8148 19.3947C10.8752 19.4128 10.9376 19.4219 11 19.4219C11.0624 19.4219 11.1248 19.4128 11.1852 19.3947C12.5703 18.9792 13.7587 18.1463 14.6219 16.9861C15.4851 15.8259 15.9414 14.4483 15.9414 13.0022V9.32422C15.9414 8.96827 15.6528 8.67969 15.2969 8.67969ZM14.6523 13.0022C14.6523 15.3335 13.1927 17.3586 11 18.1009C8.80735 17.3586 7.34766 15.3335 7.34766 13.0022V9.90868C8.32309 9.72456 9.17112 9.12665 9.67334 8.24996H12.3267C12.8289 9.12661 13.6769 9.72456 14.6523 9.90868V13.0022Z" fill="#293462" fill-opacity="0.7"/>
<path d="M12.3673 11.5203L10.3924 13.4952L9.63275 12.7357C9.38108 12.4839 8.97296 12.4839 8.72125 12.7357C8.46954 12.9874 8.46954 13.3954 8.72125 13.6471L9.93658 14.8625C10.0624 14.9883 10.2274 15.0513 10.3923 15.0513C10.5572 15.0513 10.7222 14.9884 10.848 14.8625L13.2787 12.4318C13.5304 12.1801 13.5304 11.772 13.2787 11.5203C13.0271 11.2686 12.6189 11.2686 12.3673 11.5203Z" fill="#293462" fill-opacity="0.7"/>
</g>
<defs>
<clipPath id="clip0">
<rect width="22" height="22" fill="white"/>
</clipPath>
</defs>
</svg>
