<svg width="22" height="22" viewBox="0 0 22 22" fill="none" xmlns="http://www.w3.org/2000/svg">
<g clip-path="url(#clip0)">
<path d="M13.5667 12.8334H13.1633C13.0116 12.8336 12.8759 12.739 12.8238 12.5965C12.7791 12.4792 12.731 12.3644 12.6793 12.2507C12.6151 12.1125 12.6444 11.9488 12.7527 11.8415L13.0401 11.5537C13.4669 11.1232 13.4661 10.4289 13.0383 9.99941L12.0021 8.96321C11.572 8.53567 10.8775 8.53567 10.4474 8.96321L10.16 9.25031C10.0524 9.35815 9.88905 9.38744 9.75077 9.32364C9.6371 9.27194 9.52233 9.22391 9.40463 9.17697C9.2614 9.12523 9.16612 8.98901 9.16667 8.83671V8.43337C9.16667 7.82585 8.67419 7.33337 8.06667 7.33337H6.6C5.99248 7.33337 5.5 7.82585 5.5 8.43337V8.83671C5.50028 8.98842 5.40563 9.12413 5.26313 9.17624C5.1458 9.22097 5.03103 9.26901 4.91737 9.32071C4.77909 9.38464 4.61565 9.35536 4.50817 9.24737L4.22033 8.95991C3.79033 8.53265 3.09604 8.53265 2.66603 8.95991L1.62983 9.99941C1.2023 10.4295 1.2023 11.124 1.62983 11.5541L1.91693 11.8415C2.02519 11.9488 2.05453 12.1125 1.99027 12.2507C1.93857 12.3644 1.89053 12.4792 1.84543 12.5969C1.79295 12.7402 1.65596 12.8349 1.50333 12.8334H1.1C0.492479 12.8334 0 13.3259 0 13.9334V15.4C0 16.0076 0.492479 16.5 1.1 16.5H1.50333C1.65504 16.4998 1.79075 16.5944 1.84287 16.7369C1.8876 16.8542 1.93563 16.969 1.98733 17.0827C2.05159 17.2209 2.02226 17.3846 1.914 17.4919L1.62653 17.7797C1.19928 18.2097 1.19928 18.904 1.62653 19.334L2.66273 20.3702C3.09279 20.7977 3.78735 20.7977 4.2174 20.3702L4.50487 20.0831C4.61239 19.9753 4.77579 19.946 4.91407 20.0098C5.02773 20.0615 5.1425 20.1095 5.2602 20.1564C5.40416 20.2076 5.50028 20.3439 5.5 20.4967V20.9C5.5 21.5076 5.99248 22 6.6 22H8.06667C8.67419 22 9.16667 21.5076 9.16667 20.9V20.4967C9.16639 20.345 9.26104 20.2093 9.40353 20.1572C9.52087 20.1124 9.63563 20.0644 9.7493 20.0127C9.88758 19.9488 10.051 19.9781 10.1585 20.086L10.4463 20.3735C10.8769 20.8001 11.571 20.7993 12.0006 20.3717L13.0368 19.3355C13.4644 18.9054 13.4644 18.2109 13.0368 17.7808L12.7497 17.4933C12.6415 17.386 12.6121 17.2224 12.6764 17.0841C12.7281 16.9705 12.7761 16.8557 12.8231 16.738C12.8748 16.5948 13.011 16.4995 13.1633 16.5H13.5667C14.1742 16.5 14.6667 16.0076 14.6667 15.4V13.9334C14.6667 13.3259 14.1742 12.8334 13.5667 12.8334ZM13.9333 15.4C13.9333 15.6025 13.7692 15.7667 13.5667 15.7667H13.1633C12.7075 15.7684 12.2996 16.0501 12.1367 16.4758C12.0978 16.5785 12.0558 16.6796 12.0105 16.7791C11.822 17.1952 11.9095 17.6846 12.2305 18.0096L12.5173 18.2967C12.6605 18.4398 12.6607 18.672 12.5175 18.8153C12.5174 18.8154 12.5174 18.8154 12.5173 18.8155L11.4811 19.8517C11.3379 19.9949 11.1058 19.9949 10.9626 19.8517L10.6751 19.5646C10.3502 19.2433 9.86072 19.1558 9.4446 19.3446C9.34523 19.3897 9.24403 19.4319 9.1421 19.4708C8.71672 19.6337 8.43517 20.0412 8.43333 20.4967V20.9C8.43333 21.1025 8.26916 21.2667 8.06667 21.2667H6.6C6.39751 21.2667 6.23333 21.1025 6.23333 20.9V20.4967C6.23164 20.0409 5.9499 19.633 5.5242 19.47C5.42153 19.4312 5.32047 19.3891 5.22097 19.3439C4.8048 19.1555 4.31553 19.243 3.99043 19.5639L3.70333 19.8506C3.56024 19.9939 3.32805 19.9941 3.18478 19.8509C3.18468 19.8508 3.18459 19.8507 3.1845 19.8506L2.1483 18.8155C2.00516 18.6724 2.00516 18.4403 2.1483 18.2971L2.4354 18.0096C2.75646 17.6846 2.84391 17.1952 2.6554 16.7791C2.6103 16.6797 2.56813 16.5785 2.52927 16.4766C2.36674 16.0507 1.9591 15.7687 1.50333 15.7667H1.1C0.897508 15.7667 0.733333 15.6025 0.733333 15.4V13.9334C0.733333 13.7309 0.897508 13.5667 1.1 13.5667H1.50333C1.95915 13.565 2.36706 13.2833 2.53 12.8576C2.56887 12.7549 2.6109 12.6538 2.65613 12.5543C2.84465 12.1382 2.75715 11.6489 2.43613 11.3238L2.14793 11.0367C2.00466 10.8936 2.00452 10.6614 2.14766 10.5181C2.14775 10.5181 2.14784 10.518 2.14793 10.5179L3.18413 9.48167C3.32732 9.33854 3.55942 9.33854 3.7026 9.48167L3.99007 9.76877C4.31498 10.0901 4.80448 10.1776 5.2206 9.98877C5.31997 9.94367 5.42117 9.90151 5.5231 9.86264C5.94908 9.70025 6.23127 9.29257 6.23333 8.83671V8.43337C6.23333 8.23088 6.39751 8.06671 6.6 8.06671H8.06667C8.26916 8.06671 8.43333 8.23088 8.43333 8.43337V8.83671C8.43503 9.29252 8.71677 9.70044 9.14247 9.86337C9.24513 9.90224 9.3462 9.94427 9.4457 9.98951C9.86182 10.1783 10.3513 10.0908 10.6762 9.76951L10.9633 9.48277C11.1071 9.3406 11.3384 9.3406 11.4822 9.48277L12.5184 10.519C12.6615 10.6622 12.6615 10.8943 12.5184 11.0374L12.2313 11.3249C11.9103 11.65 11.8228 12.1393 12.0113 12.5554C12.0564 12.6548 12.0985 12.756 12.1374 12.8579C12.3003 13.2833 12.7078 13.5649 13.1633 13.5667H13.5667C13.7692 13.5667 13.9333 13.7309 13.9333 13.9334V15.4Z" fill="#293462"/>
<path d="M10.626 14.52C10.6223 14.432 10.6161 14.3444 10.6055 14.2571C10.5937 14.1633 10.5798 14.0701 10.5604 13.9788C10.5475 13.9191 10.5307 13.86 10.5145 13.8006C10.494 13.7251 10.4709 13.6507 10.4452 13.5773C10.4273 13.5264 10.4086 13.4758 10.3895 13.4255C10.3423 13.3081 10.2883 13.1935 10.2278 13.0823C10.223 13.0739 10.2201 13.0647 10.2153 13.0563C10.12 12.8865 10.0095 12.7256 9.88533 12.5756C9.8747 12.5624 9.8626 12.5499 9.8516 12.5371C9.801 12.4773 9.74893 12.4194 9.6943 12.364C9.6657 12.3343 9.63563 12.3065 9.60557 12.2779C9.5689 12.2438 9.53223 12.21 9.49557 12.1778C9.45106 12.1391 9.40573 12.1017 9.35953 12.0656L9.2994 12.0208C8.73203 11.5959 8.04219 11.3663 7.33333 11.3667C7.29667 11.3667 7.26 11.3722 7.22334 11.3737C7.14524 11.3759 7.06677 11.3803 6.98793 11.3883C6.9465 11.3927 6.9047 11.3975 6.86327 11.4034C6.74373 11.4191 6.62512 11.4413 6.50797 11.4697C4.74242 11.926 3.68101 13.7271 4.13724 15.4927C4.43791 16.6561 5.34687 17.5643 6.51054 17.864C6.5164 17.864 6.52263 17.8659 6.52887 17.8673C6.65551 17.8989 6.78379 17.9234 6.91313 17.9407C6.99857 17.9513 7.084 17.9535 7.1698 17.9575C7.227 17.9605 7.2798 17.9689 7.33957 17.9689C7.44407 17.9689 7.5526 17.9619 7.66333 17.9509C7.67507 17.9509 7.6868 17.9476 7.7 17.9462C7.7891 17.9363 7.8793 17.9231 7.97133 17.9047C8.008 17.8978 8.0421 17.8886 8.0773 17.8805C8.14183 17.8655 8.206 17.8497 8.272 17.8303C8.32333 17.8149 8.3732 17.7969 8.42343 17.7793C8.47367 17.7617 8.52573 17.7427 8.5778 17.7229C8.62987 17.7031 8.6735 17.6803 8.7208 17.6583C8.7824 17.6301 8.84364 17.6022 8.90413 17.5692H8.90633C9.24853 17.3861 9.56459 17.1578 9.8461 16.8905C9.92214 16.8196 9.98828 16.7387 10.0426 16.65C10.3288 16.1912 10.5168 15.6781 10.5948 15.143C10.6051 15.0722 10.6143 15.0015 10.6198 14.9292C10.6249 14.8629 10.6286 14.7969 10.63 14.7309C10.63 14.71 10.633 14.6902 10.633 14.6693C10.6333 14.6176 10.6282 14.5699 10.626 14.52ZM9.89523 14.7602C9.89523 14.7906 9.89267 14.8211 9.89083 14.8511C9.88423 14.9399 9.87287 15.0286 9.85783 15.1177C9.72079 15.8801 9.24747 16.5401 8.56937 16.9144C8.5239 16.9382 8.47917 16.9606 8.43443 16.9811L8.404 16.9958C8.19097 17.0925 7.96611 17.1605 7.7352 17.1982C7.71907 17.2007 7.70257 17.2037 7.68607 17.2059C7.64023 17.2125 7.59513 17.218 7.5504 17.222C7.49137 17.2271 7.43197 17.2301 7.37147 17.2312C7.3458 17.2312 7.3205 17.2312 7.29483 17.2312C7.20807 17.2302 7.12145 17.2248 7.03523 17.215L6.99123 17.2099C6.8904 17.1967 6.79039 17.1779 6.69167 17.1534C5.31841 16.8019 4.49011 15.4038 4.84156 14.0305C5.0738 13.1231 5.78192 12.4142 6.6891 12.1811V12.1807C6.89975 12.1276 7.11608 12.1004 7.33333 12.1C7.43816 12.1006 7.54288 12.1077 7.64683 12.1213C7.6747 12.1246 7.7022 12.1297 7.7297 12.1338C7.8089 12.1462 7.88737 12.162 7.96473 12.1818C7.99003 12.1884 8.01533 12.1943 8.04027 12.2012C8.23524 12.2575 8.42293 12.3365 8.59943 12.4366C8.62767 12.4531 8.65517 12.4704 8.68303 12.4876C8.74097 12.5243 8.79707 12.5609 8.85243 12.6027C8.88213 12.6244 8.9122 12.6456 8.9408 12.6687C9.01276 12.7262 9.08165 12.7874 9.14723 12.8521C9.17327 12.8785 9.1971 12.9074 9.2224 12.9349C9.26457 12.9808 9.30563 13.0277 9.34487 13.0772C9.372 13.1113 9.39804 13.1465 9.4237 13.1821C9.46037 13.2349 9.49703 13.2899 9.53003 13.3456C9.54837 13.376 9.5667 13.4057 9.5854 13.4369C9.6327 13.5239 9.67482 13.6137 9.71153 13.7057C9.7262 13.7423 9.73867 13.779 9.75187 13.8157C9.7757 13.8831 9.79624 13.9513 9.8142 14.0203C9.82337 14.0569 9.83363 14.0896 9.84133 14.1251C9.86274 14.2242 9.87828 14.3245 9.8879 14.4254C9.8901 14.4522 9.8901 14.4793 9.89193 14.5061C9.89707 14.5904 9.89853 14.6751 9.89523 14.7602Z" fill="#293462"/>
<path d="M20.9 7.7H19.7469C19.5931 7.70156 19.4556 7.60471 19.4051 7.45947C19.2914 7.11888 19.1538 6.78668 18.9934 6.46543C18.9253 6.3267 18.9536 6.15991 19.0638 6.05147L19.8814 5.2327C20.3106 4.8032 20.3106 4.10717 19.8814 3.67767L18.3224 2.12117C17.8929 1.69198 17.1968 1.69198 16.7673 2.12117L15.95 2.9381C15.8417 3.04819 15.6752 3.0767 15.5364 3.00887C15.2151 2.84758 14.8829 2.70925 14.542 2.5949C14.3962 2.54499 14.2987 2.4073 14.3 2.25317V1.1C14.3 0.492479 13.8076 0 13.2 0H11C10.3925 0 9.90004 0.492479 9.90004 1.1V2.25317C9.9016 2.40694 9.8048 2.54448 9.6595 2.5949C9.31887 2.70921 8.98667 2.84744 8.66547 3.0085C8.52673 3.07684 8.35985 3.04847 8.2515 2.9381L7.43274 2.12043C7.00273 1.69249 6.30771 1.69249 5.8777 2.12043L4.32157 3.67657C3.89216 4.10612 3.89216 4.80242 4.32157 5.23197L5.52387 6.43647C5.6693 6.57736 5.90145 6.57369 6.04234 6.42822C6.17979 6.28632 6.18011 6.061 6.04307 5.91873L4.84004 4.7146C4.6969 4.57142 4.6969 4.33932 4.84004 4.19613L6.39617 2.64C6.53935 2.49686 6.77145 2.49686 6.91464 2.64L7.73377 3.45767C8.06519 3.79106 8.57302 3.87438 8.99364 3.66447C9.28408 3.51904 9.58438 3.39419 9.89234 3.29083C10.3368 3.14036 10.6353 2.72245 10.6334 2.25317V1.1C10.6334 0.897508 10.7975 0.733333 11 0.733333H13.2C13.4025 0.733333 13.5667 0.897508 13.5667 1.1V2.25317C13.5648 2.72236 13.8633 3.14013 14.3077 3.29047C14.6158 3.39387 14.9163 3.51881 15.2068 3.66447C15.6275 3.87328 16.1347 3.78987 16.4663 3.4573L17.2854 2.64C17.4286 2.49686 17.6607 2.49686 17.8039 2.64L19.36 4.1965C19.5029 4.33964 19.5029 4.57146 19.36 4.7146L18.5424 5.53373C18.2093 5.86534 18.126 6.37294 18.3356 6.7936C18.481 7.08405 18.6058 7.38435 18.7092 7.6923C18.8596 8.13688 19.2775 8.43535 19.7469 8.43333H20.9C21.1025 8.43333 21.2667 8.59751 21.2667 8.8V11C21.2667 11.2025 21.1025 11.3667 20.9 11.3667H19.7469C19.2777 11.3648 18.8599 11.6633 18.7096 12.1077C18.6062 12.4158 18.4812 12.7162 18.3356 13.0068C18.1264 13.4274 18.2098 13.9348 18.5427 14.2663L19.3604 15.0854C19.5035 15.2286 19.5035 15.4607 19.3604 15.6039L17.8035 17.16C17.6604 17.3029 17.4286 17.3029 17.2854 17.16L16.0806 15.9577C15.9397 15.8122 15.7075 15.8086 15.5621 15.9495C15.4166 16.0903 15.413 16.3225 15.5539 16.4679C15.5568 16.4709 15.5598 16.474 15.5628 16.4769L16.7673 17.6792C17.1968 18.1084 17.8929 18.1084 18.3224 17.6792L19.8785 16.1234C20.3079 15.6939 20.3079 14.9976 19.8785 14.568L19.0619 13.75C18.9519 13.6417 18.9235 13.4751 18.9912 13.3364C19.1525 13.0151 19.2908 12.6828 19.4051 12.342C19.455 12.1962 19.5927 12.0986 19.7469 12.1H20.9C21.5076 12.1 22 11.6075 22 11V8.8C22 8.19248 21.5076 7.7 20.9 7.7Z" fill="#293462"/>
<path d="M15.4704 6.52951C13.6079 4.67083 10.5922 4.67083 8.72962 6.52951C8.58896 6.67517 8.59299 6.90731 8.73865 7.04797C8.88073 7.1852 9.106 7.1852 9.24809 7.04797C10.8126 5.46232 13.3663 5.44523 14.952 7.00975C16.5376 8.57427 16.5547 11.128 14.9902 12.7136C14.9775 12.7264 14.9648 12.7392 14.952 12.7518C14.8063 12.8925 14.8023 13.1246 14.943 13.2703C15.0837 13.416 15.3158 13.42 15.4615 13.2793C15.4645 13.2764 15.4675 13.2733 15.4704 13.2703C17.3291 11.4077 17.3291 8.39208 15.4704 6.52951Z" fill="#293462"/>
</g>
<defs>
<clipPath id="clip0">
<rect width="22" height="22" fill="white"/>
</clipPath>
</defs>
</svg>
