<svg width="510" height="510" viewBox="0 0 510 510" fill="none" xmlns="http://www.w3.org/2000/svg">
<path d="M255 0C114.75 0 0 114.75 0 255C0 395.25 114.75 510 255 510C395.25 510 510 395.25 510 255C510 114.75 395.25 0 255 0ZM255 76.5C298.35 76.5 331.5 109.65 331.5 153C331.5 196.35 298.35 229.5 255 229.5C211.65 229.5 178.5 196.35 178.5 153C178.5 109.65 211.65 76.5 255 76.5ZM255 438.6C191.25 438.6 135.15 405.451 102 357C102 306 204 277.95 255 277.95C306 277.95 408 306 408 357C374.85 405.45 318.75 438.6 255 438.6Z" fill="#293462"/>
</svg>
