<svg height="512pt" viewBox="-20 0 512 512" width="512pt" xmlns="http://www.w3.org/2000/svg"><path d="m445.179688 256c31.292968-35.316406 36.714843-86.863281 12.960937-128-23.785156-41.199219-71.160156-62.203125-117.332031-52.773438-14.933594-44.757812-56.867188-75.226562-104.371094-75.226562-47.566406 0-89.453125 30.523438-104.371094 75.226562-46.230468-9.445312-93.578125 11.632813-117.328125 52.773438-23.785156 41.195312-18.292969 92.730469 12.957031 128-31.292968 35.316406-36.710937 86.863281-12.957031 128 23.78125 41.195312 71.160157 62.207031 117.332031 52.773438 14.933594 44.757812 56.867188 75.226562 104.367188 75.226562 47.566406 0 89.457031-30.523438 104.371094-75.226562 46.234375 9.445312 93.582031-11.632813 117.332031-52.773438 23.785156-41.195312 18.292969-92.730469-12.960937-128zm0 0" fill="#61e87b"/><path d="m445.179688 256c31.292968-35.316406 36.714843-86.863281 12.960937-128-23.785156-41.199219-71.160156-62.203125-117.332031-52.773438-14.933594-44.757812-56.867188-75.226562-104.371094-75.226562v512c47.566406 0 89.457031-30.523438 104.371094-75.226562 46.234375 9.445312 93.582031-11.632813 117.332031-52.773438 23.785156-41.195312 18.292969-92.730469-12.960937-128zm0 0" fill="#31c269"/><path d="m198.34375 346.261719-72.511719-72.511719 21.210938-21.214844 51.300781 51.300782 127.488281-127.488282 21.210938 21.210938zm0 0" fill="#deecf1"/><path d="m325.832031 176.347656-89.394531 89.390625v42.425781l110.605469-110.605468zm0 0" fill="#a8d3d8"/></svg>